<?xml version="1.0" encoding="utf-8"?>
<!-- Generator: Adobe Illustrator 25.2.1, SVG Export Plug-In . SVG Version: 6.00 Build 0)  -->
<!DOCTYPE svg PUBLIC "-//W3C//DTD SVG 1.1//EN" "http://www.w3.org/Graphics/SVG/1.1/DTD/svg11.dtd" [
	<!ENTITY ns_extend "http://ns.adobe.com/Extensibility/1.0/">
	<!ENTITY ns_ai "http://ns.adobe.com/AdobeIllustrator/10.0/">
	<!ENTITY ns_graphs "http://ns.adobe.com/Graphs/1.0/">
	<!ENTITY ns_vars "http://ns.adobe.com/Variables/1.0/">
	<!ENTITY ns_imrep "http://ns.adobe.com/ImageReplacement/1.0/">
	<!ENTITY ns_sfw "http://ns.adobe.com/SaveForWeb/1.0/">
	<!ENTITY ns_custom "http://ns.adobe.com/GenericCustomNamespace/1.0/">
	<!ENTITY ns_adobe_xpath "http://ns.adobe.com/XPath/1.0/">
]>
<svg version="1.1" id="Capa_1" xmlns:x="&ns_extend;" xmlns:i="&ns_ai;" xmlns:graph="&ns_graphs;"
	 xmlns="http://www.w3.org/2000/svg" xmlns:xlink="http://www.w3.org/1999/xlink" x="0px" y="0px" viewBox="0 0 717.9 406.5"
	 style="enable-background:new 0 0 717.9 406.5;" xml:space="preserve">
<style type="text/css">
	.st0{fill:#4CAD33;}
	.st1{fill:#D8DC40;}
	.st2{fill:#FFFFFF;}
	.st3{font-family:'AgencyFB-Reg';}
	.st4{font-size:72.5737px;}
	.st5{font-size:74.9985px;}
</style>
<metadata>
	<sfw  xmlns="&ns_sfw;">
		<slices></slices>
		<sliceSourceBounds  bottomLeftOrigin="true" height="384.4" width="676.7" x="20.4" y="-526.1"></sliceSourceBounds>
	</sfw>
</metadata>
<image style="overflow:visible;" width="865" height="1477" xlink:href="../../../logo-pf-4/skipper.png"  transform="matrix(0.252 0 0 0.252 20.408 20.8723)">
</image>
<path class="st0" d="M385,145.9l-8.5-3.6l13.2-28.8l64.7,23.4l-15,121.7l-58.2-4.5c2.1-6,5-14.6,8.7-25.8c3.7-11.2,6.1-18.5,7.2-22
	c-5,2.3-15,3.5-30,3.5c-14.4,0-27.1-2.6-38.1-7.9c-11-5.2-20-14.2-27-27c-7-12.7-11.3-30-12.8-51.7c-0.2-2.1-0.2-5.4-0.2-9.7
	c0-10.9,1.3-21.3,4-31.3c2.6-10,6.9-19,12.9-27c6-8,14.3-14.6,24.8-19.6c10.5-5.1,23.3-7.7,38.3-7.9c9.9,0,19.7,1.1,29.3,3.4
	c9.6,2.2,18.4,5.4,26.5,9.4c8,4,14.9,8.9,20.7,14.6c5.8,5.8,9.5,11.9,11.3,18.5L405.3,106c-3.4-8.2-14.9-12.3-34.5-12.3
	c-4.4,0-9,3-13.6,9.1c-4.7,6.1-7,13-7,20.6c0.4,5.8,2.2,11.4,5.4,16.7c3.2,5.3,8.9,8.2,17.1,8.5c0.7,0,1.9-0.2,3.6-0.6
	c1.7-0.4,3.2-0.8,4.6-1.1C382.2,146.5,383.6,146.2,385,145.9z"/>
<path class="st1" d="M556.2,67.4l6.5,147.9h-7c-4.6,0-10.4-0.1-17.4-0.4c-7-0.2-13.4-0.7-19.1-1.4c-5.7-0.7-10-1.6-12.7-2.7
	l-7.6-141.7l-71.4,1l1-43.4l182.9-11.7l2.9,47.8L556.2,67.4z"/>
<text transform="matrix(1 0 0 1 217.3885 319.9737)" class="st2 st3 st4">¡Donde todo es</text>
<text transform="matrix(0.8553 0 0 1 317.0458 384.5605)" class="st2 st3 st5">Gestión de Tiempo!</text>
</svg>
